<svg width="260" height="260" viewBox="0 0 260 260" fill="none" xmlns="http://www.w3.org/2000/svg">
<rect y="51" width="260" height="158.993" rx="10" fill="#1E1E1E"/>
<path d="M42.6463 84.4206L42.829 88.8046C45.7273 85.3948 49.6363 83.6899 54.5561 83.6899C60.0848 83.6899 63.8478 85.8088 65.8449 90.0467C67.1601 88.147 68.865 86.6126 70.9596 85.4435C73.0785 84.2744 75.575 83.6899 78.4489 83.6899C87.1195 83.6899 91.5278 88.2809 91.6739 97.463V123.95H84.9153V97.8648C84.9153 95.0396 84.2699 92.9328 82.979 91.5446C81.6882 90.1319 79.5205 89.4256 76.4761 89.4256C73.9675 89.4256 71.8851 90.1807 70.2289 91.6907C68.5727 93.1764 67.6107 95.1857 67.3428 97.7187V123.95H60.5476V98.0475C60.5476 92.2996 57.7345 89.4256 52.1084 89.4256C47.6757 89.4256 44.6434 91.3132 43.0116 95.0883V123.95H36.253V84.4206H42.6463Z" fill="white"/>
<path d="M112.936 105.646L108.698 110.067V123.95H101.94V67.8345H108.698V101.774L112.315 97.4264L124.627 84.4206H132.847L117.466 100.934L134.637 123.95H126.709L112.936 105.646Z" fill="white"/>
<path d="M146.583 89.2064C149.579 85.5288 153.476 83.6899 158.274 83.6899C166.628 83.6899 170.842 88.4027 170.915 97.8283V123.95H164.156V97.7918C164.132 94.9422 163.474 92.8354 162.183 91.4715C160.917 90.1076 158.932 89.4256 156.228 89.4256C154.036 89.4256 152.112 90.0102 150.456 91.1792C148.8 92.3483 147.509 93.8827 146.583 95.7824V123.95H139.825V67.8345H146.583V89.2064Z" fill="white"/>
<path d="M188.378 123.95H181.619V67.8345H188.378V123.95Z" fill="white"/>
<path d="M59.3055 175.815C59.3055 173.988 58.6113 172.575 57.2231 171.577C55.8592 170.554 53.4601 169.677 50.026 168.946C46.6162 168.216 43.9006 167.339 41.8791 166.316C39.8819 165.293 38.3963 164.075 37.422 162.663C36.4722 161.25 35.9972 159.57 35.9972 157.621C35.9972 154.382 37.3611 151.642 40.089 149.401C42.8411 147.16 46.3483 146.04 50.6105 146.04C55.092 146.04 58.7209 147.197 61.4975 149.511C64.2983 151.824 65.6988 154.784 65.6988 158.388H58.9036C58.9036 156.537 58.112 154.942 56.5289 153.602C54.9702 152.263 52.9974 151.593 50.6105 151.593C48.1506 151.593 46.2266 152.129 44.8383 153.201C43.45 154.272 42.7559 155.673 42.7559 157.402C42.7559 159.034 43.4013 160.264 44.6922 161.092C45.983 161.92 48.309 162.711 51.67 163.466C55.0554 164.221 57.7954 165.123 59.89 166.17C61.9846 167.217 63.5311 168.484 64.5297 169.969C65.5527 171.431 66.0641 173.221 66.0641 175.34C66.0641 178.871 64.6515 181.709 61.8263 183.852C59.001 185.971 55.3355 187.03 50.8297 187.03C47.6635 187.03 44.8626 186.47 42.4271 185.35C39.9915 184.229 38.0796 182.671 36.6914 180.674C35.3275 178.652 34.6455 176.472 34.6455 174.134H41.4042C41.5259 176.399 42.4271 178.201 44.1076 179.541C45.8125 180.856 48.0532 181.514 50.8297 181.514C53.3871 181.514 55.4329 181.002 56.9673 179.979C58.5261 178.932 59.3055 177.544 59.3055 175.815Z" fill="white"/>
<path d="M81.6273 151.557C84.623 147.879 88.5199 146.04 93.3179 146.04C101.672 146.04 105.885 150.753 105.958 160.178V186.3H99.1998V160.142C99.1754 157.292 98.5178 155.186 97.227 153.822C95.9605 152.458 93.9755 151.776 91.2721 151.776C89.0801 151.776 87.156 152.36 85.4998 153.529C83.8436 154.698 82.5528 156.233 81.6273 158.133V186.3H74.8686V130.185H81.6273V151.557Z" fill="white"/>
<path d="M149.47 166.974C149.47 172.989 148.093 177.836 145.341 181.514C142.589 185.192 138.863 187.03 134.162 187.03C129.364 187.03 125.589 185.508 122.837 182.464V201.498H116.078V146.771H122.252L122.581 151.155C125.333 147.745 129.157 146.04 134.053 146.04C138.802 146.04 142.553 147.83 145.305 151.41C148.081 154.991 149.47 159.971 149.47 166.353V166.974ZM142.711 166.206C142.711 161.749 141.761 158.23 139.861 155.648C137.962 153.067 135.356 151.776 132.043 151.776C127.951 151.776 124.883 153.59 122.837 157.219V176.107C124.858 179.712 127.951 181.514 132.116 181.514C135.356 181.514 137.925 180.235 139.825 177.678C141.749 175.096 142.711 171.272 142.711 166.206Z" fill="white"/>
<path d="M169.124 167.997L164.887 172.417V186.3H158.128V130.185H164.887V164.124L168.503 159.777L180.815 146.771H189.035L173.655 163.284L190.825 186.3H182.898L169.124 167.997Z" fill="white"/>
<path d="M209.055 177.13L218.846 146.771H225.751L211.576 186.3H206.425L192.104 146.771H199.009L209.055 177.13Z" fill="white"/>
</svg>
