<svg width="560" height="560" viewBox="0 0 560 560" fill="none" xmlns="http://www.w3.org/2000/svg">
<rect y="108.777" width="560" height="342.446" rx="10" fill="#1E1E1E"/>
<path d="M91.854 180.76L92.2475 190.202C98.49 182.858 106.91 179.186 117.506 179.186C129.414 179.186 137.519 183.75 141.82 192.878C144.653 188.786 148.325 185.481 152.837 182.963C157.4 180.445 162.777 179.186 168.967 179.186C187.642 179.186 197.137 189.074 197.452 208.851V265.899H182.895V209.717C182.895 203.632 181.505 199.094 178.725 196.104C175.944 193.061 171.276 191.54 164.718 191.54C159.315 191.54 154.83 193.166 151.263 196.419C147.696 199.618 145.624 203.946 145.046 209.402V265.899H130.411V210.11C130.411 197.73 124.352 191.54 112.234 191.54C102.687 191.54 96.1556 195.605 92.6409 203.736V265.899H78.0838V180.76H91.854Z" fill="white"/>
<path d="M243.248 226.477L234.12 235.998V265.899H219.563V145.036H234.12V218.136L241.91 208.772L268.428 180.76H286.132L253.005 216.326L289.988 265.899H272.913L243.248 226.477Z" fill="white"/>
<path d="M315.719 191.068C322.171 183.147 330.564 179.186 340.899 179.186C358.892 179.186 367.967 189.337 368.124 209.638V265.899H353.567V209.559C353.515 203.422 352.098 198.884 349.318 195.946C346.59 193.009 342.315 191.54 336.492 191.54C331.771 191.54 327.627 192.799 324.06 195.317C320.492 197.835 317.712 201.14 315.719 205.231V265.899H301.162V145.036H315.719V191.068Z" fill="white"/>
<path d="M405.737 265.899H391.18V145.036H405.737V265.899Z" fill="white"/>
<path d="M127.735 377.609C127.735 373.674 126.24 370.632 123.25 368.481C120.313 366.278 115.145 364.389 107.749 362.815C100.405 361.242 94.5556 359.353 90.2016 357.15C85.9001 354.947 82.7001 352.324 80.6018 349.281C78.5559 346.239 77.533 342.619 77.533 338.422C77.533 331.446 80.4707 325.544 86.346 320.718C92.2737 315.892 99.8277 313.479 109.008 313.479C118.66 313.479 126.476 315.97 132.457 320.954C138.489 325.937 141.506 332.311 141.506 340.075H126.87C126.87 336.088 125.165 332.652 121.755 329.767C118.398 326.882 114.149 325.439 109.008 325.439C103.71 325.439 99.5654 326.593 96.5753 328.901C93.5852 331.209 92.0901 334.226 92.0901 337.95C92.0901 341.465 93.4802 344.114 96.2605 345.898C99.0408 347.681 104.051 349.386 111.29 351.012C118.581 352.639 124.483 354.58 128.994 356.835C133.506 359.091 136.837 361.819 138.988 365.019C141.191 368.166 142.292 372.022 142.292 376.586C142.292 384.192 139.25 390.303 133.165 394.92C127.08 399.484 119.185 401.766 109.48 401.766C102.66 401.766 96.6277 400.559 91.3819 398.146C86.1361 395.733 82.0182 392.376 79.0281 388.074C76.0904 383.72 74.6216 379.025 74.6216 373.989H89.1787C89.441 378.868 91.3819 382.749 95.0015 385.635C98.6736 388.467 103.5 389.884 109.48 389.884C114.988 389.884 119.395 388.782 122.699 386.579C126.057 384.323 127.735 381.333 127.735 377.609Z" fill="white"/>
<path d="M175.813 325.36C182.265 317.439 190.659 313.479 200.993 313.479C218.986 313.479 228.061 323.629 228.219 343.931V400.192H213.662V343.852C213.609 337.714 212.193 333.177 209.413 330.239C206.685 327.301 202.409 325.833 196.587 325.833C191.865 325.833 187.721 327.091 184.154 329.609C180.587 332.127 177.807 335.432 175.813 339.524V400.192H161.256V279.328H175.813V325.36Z" fill="white"/>
<path d="M321.935 358.566C321.935 371.523 318.971 381.963 313.043 389.884C307.116 397.805 299.09 401.766 288.965 401.766C278.631 401.766 270.5 398.487 264.572 391.93V432.926H250.015V315.052H263.313L264.021 324.495C269.949 317.151 278.185 313.479 288.729 313.479C298.958 313.479 307.037 317.334 312.965 325.046C318.945 332.757 321.935 343.485 321.935 357.229V358.566ZM307.378 356.914C307.378 347.314 305.332 339.734 301.24 334.173C297.149 328.613 291.536 325.833 284.401 325.833C275.588 325.833 268.979 329.741 264.572 337.557V378.238C268.926 386.002 275.588 389.884 284.559 389.884C291.536 389.884 297.07 387.13 301.162 381.622C305.306 376.061 307.378 367.825 307.378 356.914Z" fill="white"/>
<path d="M364.269 360.77L355.141 370.291V400.192H340.584V279.328H355.141V352.429L362.931 343.065L389.448 315.052H407.153L374.026 350.619L411.009 400.192H393.934L364.269 360.77Z" fill="white"/>
<path d="M450.274 380.441L471.362 315.052H486.234L455.703 400.192H444.608L413.763 315.052H428.635L450.274 380.441Z" fill="white"/>
</svg>
