<svg width="417" height="255" viewBox="0 0 417 255" fill="none" xmlns="http://www.w3.org/2000/svg">
<rect width="417" height="255" rx="10" fill="#1E1E1E"/>
<path d="M68.3984 53.6016L68.6914 60.6328C73.3398 55.1641 79.6094 52.4297 87.5 52.4297C96.3672 52.4297 102.402 55.8281 105.605 62.625C107.715 59.5781 110.449 57.1172 113.809 55.2422C117.207 53.3672 121.211 52.4297 125.82 52.4297C139.727 52.4297 146.797 59.793 147.031 74.5195V117H136.191V75.1641C136.191 70.6328 135.156 67.2539 133.086 65.0273C131.016 62.7617 127.539 61.6289 122.656 61.6289C118.633 61.6289 115.293 62.8398 112.637 65.2617C109.98 67.6445 108.438 70.8672 108.008 74.9297V117H97.1094V75.457C97.1094 66.2383 92.5977 61.6289 83.5742 61.6289C76.4648 61.6289 71.6016 64.6562 68.9844 70.7109V117H58.1445V53.6016H68.3984ZM181.133 87.6445L174.336 94.7344V117H163.496V27H174.336V81.4336L180.137 74.4609L199.883 53.6016H213.066L188.398 80.0859L215.938 117H203.223L181.133 87.6445ZM235.098 61.2773C239.902 55.3789 246.152 52.4297 253.848 52.4297C267.246 52.4297 274.004 59.9883 274.121 75.1055V117H263.281V75.0469C263.242 70.4766 262.188 67.0977 260.117 64.9102C258.086 62.7227 254.902 61.6289 250.566 61.6289C247.051 61.6289 243.965 62.5664 241.309 64.4414C238.652 66.3164 236.582 68.7773 235.098 71.8242V117H224.258V27H235.098V61.2773ZM302.129 117H291.289V27H302.129V117ZM95.1172 200.184C95.1172 197.254 94.0039 194.988 91.7773 193.387C89.5898 191.746 85.7422 190.34 80.2344 189.168C74.7656 187.996 70.4102 186.59 67.168 184.949C63.9648 183.309 61.582 181.355 60.0195 179.09C58.4961 176.824 57.7344 174.129 57.7344 171.004C57.7344 165.809 59.9219 161.414 64.2969 157.82C68.7109 154.227 74.3359 152.43 81.1719 152.43C88.3594 152.43 94.1797 154.285 98.6328 157.996C103.125 161.707 105.371 166.453 105.371 172.234H94.4727C94.4727 169.266 93.2031 166.707 90.6641 164.559C88.1641 162.41 85 161.336 81.1719 161.336C77.2266 161.336 74.1406 162.195 71.9141 163.914C69.6875 165.633 68.5742 167.879 68.5742 170.652C68.5742 173.27 69.6094 175.242 71.6797 176.57C73.75 177.898 77.4805 179.168 82.8711 180.379C88.3008 181.59 92.6953 183.035 96.0547 184.715C99.4141 186.395 101.895 188.426 103.496 190.809C105.137 193.152 105.957 196.023 105.957 199.422C105.957 205.086 103.691 209.637 99.1602 213.074C94.6289 216.473 88.75 218.172 81.5234 218.172C76.4453 218.172 71.9531 217.273 68.0469 215.477C64.1406 213.68 61.0742 211.18 58.8477 207.977C56.6602 204.734 55.5664 201.238 55.5664 197.488H66.4062C66.6016 201.121 68.0469 204.012 70.7422 206.16C73.4766 208.27 77.0703 209.324 81.5234 209.324C85.625 209.324 88.9062 208.504 91.3672 206.863C93.8672 205.184 95.1172 202.957 95.1172 200.184ZM130.918 161.277C135.723 155.379 141.973 152.43 149.668 152.43C163.066 152.43 169.824 159.988 169.941 175.105V217H159.102V175.047C159.062 170.477 158.008 167.098 155.938 164.91C153.906 162.723 150.723 161.629 146.387 161.629C142.871 161.629 139.785 162.566 137.129 164.441C134.473 166.316 132.402 168.777 130.918 171.824V217H120.078V127H130.918V161.277ZM239.727 186.004C239.727 195.652 237.52 203.426 233.105 209.324C228.691 215.223 222.715 218.172 215.176 218.172C207.48 218.172 201.426 215.73 197.012 210.848V241.375H186.172V153.602H196.074L196.602 160.633C201.016 155.164 207.148 152.43 215 152.43C222.617 152.43 228.633 155.301 233.047 161.043C237.5 166.785 239.727 174.773 239.727 185.008V186.004ZM228.887 184.773C228.887 177.625 227.363 171.98 224.316 167.84C221.27 163.699 217.09 161.629 211.777 161.629C205.215 161.629 200.293 164.539 197.012 170.359V200.652C200.254 206.434 205.215 209.324 211.895 209.324C217.09 209.324 221.211 207.273 224.258 203.172C227.344 199.031 228.887 192.898 228.887 184.773ZM271.25 187.645L264.453 194.734V217H253.613V127H264.453V181.434L270.254 174.461L290 153.602H303.184L278.516 180.086L306.055 217H293.34L271.25 187.645ZM335.293 202.293L350.996 153.602H362.07L339.336 217H331.074L308.105 153.602H319.18L335.293 202.293Z" fill="white"/>
</svg>
